
<svg class="c-logo__image" xmlns="http://www.w3.org/2000/svg" xmlns:xlink="http://www.w3.org/1999/xlink" width="151px" height="50px" viewBox="0 0 151 50" version="1.1"><g stroke="none" stroke-width="1" fill="none" fill-rule="evenodd"><path d="M110.460396,33.8366337 C111.381188,33.8366337 112.376238,34.0346535 113.450495,34.4207921 C114.524752,34.8118812 115.415842,35.4356436 116.118812,36.2970297 L114.386139,38.1930693 C113.836634,37.6435644 113.217822,37.1980198 112.524752,36.8465347 C111.831683,36.4950495 111.188119,36.3168317 110.60396,36.3168317 C110.193069,36.3168317 109.787129,36.3663366 109.386139,36.4653465 C108.985149,36.5643564 108.648515,36.7425743 108.376238,37.009901 C108.10396,37.2722772 107.965347,37.6584158 107.965347,38.1683168 C107.985149,38.8712871 108.30198,39.3712871 108.920792,39.6633663 C109.534653,39.9554455 110.30198,40.2227723 111.222772,40.4554455 C112.024752,40.6683168 112.806931,40.9405941 113.569307,41.2623762 C114.331683,41.5841584 114.960396,42.0544554 115.460396,42.6683168 C115.960396,43.2821782 116.207921,44.1485149 116.207921,45.2623762 C116.207921,46.2227723 115.940594,47.039604 115.40099,47.7277228 C114.861386,48.4108911 114.168317,48.9356436 113.316832,49.2970297 C112.465347,49.6584158 111.574257,49.8415842 110.633663,49.8415842 C109.519802,49.8415842 108.420792,49.6435644 107.336634,49.2425743 C106.252475,48.8415842 105.326733,48.1534653 104.564356,47.1732673 L106.618812,45.4158416 C107.148515,46.019802 107.747525,46.4950495 108.420792,46.8366337 C109.094059,47.1782178 109.920792,47.3514851 110.90099,47.3514851 C111.272277,47.3514851 111.643564,47.2871287 112.014851,47.1633663 C112.386139,47.0346535 112.70297,46.8316832 112.970297,46.549505 C113.232673,46.2673267 113.366337,45.8811881 113.366337,45.3910891 C113.366337,44.9207921 113.222772,44.5544554 112.940594,44.2920792 C112.658416,44.029703 112.282178,43.8118812 111.811881,43.6485149 C111.341584,43.480198 110.826733,43.3316832 110.257426,43.1930693 C109.415842,42.960396 108.589109,42.6683168 107.777228,42.3267327 C106.965347,41.9851485 106.292079,41.4950495 105.752475,40.8613861 C105.212871,40.2277228 104.945545,39.3613861 104.945545,38.2673267 C104.945545,37.3465347 105.20297,36.5594059 105.722772,35.9059406 C106.242574,35.2524752 106.920792,34.7425743 107.762376,34.3811881 C108.60396,34.019802 109.5,33.8366337 110.460396,33.8366337 Z M132.648515,33.8366337 C133.569307,33.8366337 134.564356,34.0346535 135.638614,34.4207921 C136.712871,34.8118812 137.60396,35.4356436 138.306931,36.2970297 L136.584158,38.1930693 C136.034653,37.6435644 135.415842,37.1980198 134.722772,36.8465347 C134.029703,36.4950495 133.386139,36.3168317 132.80198,36.3168317 C132.391089,36.3168317 131.985149,36.3663366 131.584158,36.4653465 C131.183168,36.5643564 130.846535,36.7425743 130.574257,37.009901 C130.30198,37.2722772 130.163366,37.6584158 130.163366,38.1683168 C130.183168,38.8712871 130.5,39.3712871 131.113861,39.6633663 C131.727723,39.9554455 132.49505,40.2227723 133.415842,40.4554455 C134.217822,40.6683168 135,40.9405941 135.762376,41.2623762 C136.524752,41.5841584 137.153465,42.0544554 137.653465,42.6683168 C138.153465,43.2821782 138.40099,44.1485149 138.40099,45.2623762 C138.40099,46.2227723 138.133663,47.039604 137.594059,47.7277228 C137.054455,48.4108911 136.361386,48.9356436 135.509901,49.2970297 C134.658416,49.6584158 133.767327,49.8415842 132.826733,49.8415842 C131.712871,49.8415842 130.613861,49.6435644 129.529703,49.2425743 C128.445545,48.8415842 127.519802,48.1534653 126.757426,47.1732673 L128.811881,45.4158416 C129.341584,46.019802 129.940594,46.4950495 130.613861,46.8366337 C131.287129,47.1782178 132.113861,47.3514851 133.094059,47.3514851 C133.465347,47.3514851 133.836634,47.2871287 134.207921,47.1633663 C134.579208,47.0346535 134.89604,46.8316832 135.158416,46.549505 C135.420792,46.2673267 135.554455,45.8811881 135.554455,45.3910891 C135.554455,44.9207921 135.410891,44.5544554 135.128713,44.2920792 C134.846535,44.029703 134.470297,43.8118812 134,43.6485149 C133.529703,43.480198 133.014851,43.3316832 132.445545,43.1930693 C131.60396,42.960396 130.777228,42.6683168 129.965347,42.3267327 C129.153465,41.9851485 128.480198,41.4950495 127.940594,40.8613861 C127.40099,40.2277228 127.133663,39.3613861 127.133663,38.2673267 C127.133663,37.3465347 127.391089,36.5594059 127.910891,35.9059406 C128.430693,35.2524752 129.108911,34.7425743 129.950495,34.3811881 C130.792079,34.019802 131.688119,33.8366337 132.648515,33.8366337 Z M95.2376238,33.8019802 C96.529703,33.8019802 97.7029703,34.1188119 98.7574257,34.7524752 C99.8118812,35.3861386 100.653465,36.2623762 101.277228,37.3762376 C101.90099,38.490099 102.217822,39.7920792 102.217822,41.2772277 L102.188119,42.5693069 L90.4009901,42.5693069 C90.5792079,43.9554455 91.1485149,45.0594059 92.1188119,45.8663366 C93.0891089,46.6782178 94.3118812,47.0841584 95.7970297,47.0841584 C96.8712871,47.0841584 97.7425743,46.8861386 98.4059406,46.4851485 C99.0693069,46.0841584 99.6188119,45.6980198 100.049505,45.3267327 L101.544554,47.519802 L101.514851,47.519802 C100.891089,48.1237624 100.029703,48.6633663 98.9356436,49.1336634 C97.8415842,49.6039604 96.6980198,49.8366337 95.5049505,49.8366337 C93.9009901,49.8366337 92.490099,49.5 91.2673267,48.8267327 C90.0445545,48.1534653 89.0940594,47.2227723 88.4059406,46.039604 C87.7227723,44.8564356 87.3811881,43.5148515 87.3811881,42.009901 C87.3811881,40.2920792 87.7425743,38.8168317 88.4653465,37.5990099 C89.1881188,36.3762376 90.1485149,35.4405941 91.3366337,34.7821782 C92.529703,34.1287129 93.8316832,33.8019802 95.2376238,33.8019802 Z M78.019802,29.019802 C79.0940594,29.019802 80.1237624,29.2821782 81.1138614,29.8118812 C82.0990099,30.3415842 82.9108911,31.0940594 83.549505,32.0693069 C84.1881188,33.039604 84.5049505,34.2029703 84.5049505,35.5544554 C84.5049505,36.7871287 84.1386139,37.9306931 83.4059406,38.9851485 C82.6732673,40.039604 81.7178218,40.8217822 80.5445545,41.3316832 L85.3267327,49.5742574 L81.4851485,49.5445545 L77.1435644,41.8316832 L72.450495,41.8316832 L72.450495,49.5445545 L69.2821782,49.5445545 L69.2821782,29.019802 L78.019802,29.019802 Z M39.7277228,33.8217822 C41.1138614,33.8217822 42.1930693,34.1039604 42.9554455,34.6732673 C43.7178218,35.2425743 44.2524752,36.0049505 44.5544554,36.960396 C44.8564356,37.9207921 45.009901,38.9851485 45.009901,40.1584158 L45.009901,49.5445545 L41.990099,49.5445545 L41.990099,40.3663366 C41.990099,39.6237624 41.8910891,38.960396 41.6980198,38.3712871 C41.5,37.7871287 41.1683168,37.3267327 40.7029703,36.9950495 C40.2326733,36.6633663 39.5792079,36.5247525 38.7376238,36.5841584 C37.9554455,36.5841584 37.2623762,36.7524752 36.6534653,37.0841584 C36.049505,37.4158416 35.5693069,37.8564356 35.2178218,38.4059406 C34.8663366,38.9554455 34.6881188,39.5594059 34.6881188,40.2227723 L34.6881188,49.549505 L31.6683168,49.549505 L31.6683168,34.1534653 L34.6881188,34.1534653 L34.6881188,36.5891089 C35.1584158,35.8663366 35.8415842,35.2277228 36.7425743,34.6683168 C37.6386139,34.1039604 38.6336634,33.8217822 39.7277228,33.8217822 Z M123.128713,34.1435644 L123.128713,49.539604 L120.108911,49.539604 L120.108911,34.1435644 L123.128713,34.1435644 Z M20.9306931,29.0148515 L28.8168317,49.539604 L25.450495,49.539604 L23.5148515,44.4356436 L14.9207921,44.4356436 L12.9851485,49.539604 L9.75742574,49.539604 L17.7029703,29.0148515 L20.9306931,29.0148515 Z M63.950495,34.1435644 L63.950495,49.539604 L60.9306931,49.539604 L60.9306931,34.1435644 L63.950495,34.1435644 Z M146.673267,30.2178218 L146.673267,34.1485149 L150.252475,34.1485149 L150.252475,37.0792079 L146.673267,37.0792079 L146.673267,49.539604 L143.653465,49.539604 L143.653465,37.0792079 L140.455446,37.0792079 L140.455446,34.1485149 L143.653465,34.1485149 L143.653465,30.2178218 L146.673267,30.2178218 Z M54.039604,30.2178218 L54.039604,34.1485149 L57.6188119,34.1485149 L57.6188119,37.0792079 L54.039604,37.0792079 L54.039604,49.539604 L51.019802,49.539604 L51.019802,37.0792079 L47.8217822,37.0792079 L47.8217822,34.1485149 L51.019802,34.1485149 L51.019802,30.2178218 L54.039604,30.2178218 Z M19.2326733,32.5594059 C18.960396,33.3811881 18.6881188,34.2029703 18.4257426,35.0247525 C18.1633663,35.8465347 17.9009901,36.5990099 17.6485149,37.2821782 L16.0940594,41.3861386 L22.3712871,41.3861386 L20.7574257,37.1633663 C20.5049505,36.480198 20.2475248,35.7425743 19.9950495,34.950495 C19.7425743,34.1584158 19.4851485,33.3613861 19.2326733,32.5594059 Z M95.2376238,36.5792079 C94.0841584,36.5792079 93.0792079,36.8465347 92.2178218,37.3861386 C91.3564356,37.9257426 90.7920792,38.8465347 90.5148515,40.1584158 L99.1386139,40.1584158 L99.1386139,39.9554455 C99.0792079,39.2920792 98.8613861,38.7029703 98.480198,38.1980198 C98.0990099,37.6881188 97.6237624,37.2920792 97.0594059,37.009901 C96.490099,36.7227723 95.8861386,36.5792079 95.2376238,36.5792079 Z M77.5,32.0643564 L72.4554455,32.0643564 L72.4554455,38.7821782 L78.3217822,38.7821782 C79.2623762,38.7821782 79.990099,38.450495 80.5049505,37.7871287 C81.0247525,37.1237624 81.2821782,36.3712871 81.2821782,35.529703 C81.2821782,34.4554455 80.9108911,33.6089109 80.1683168,32.9950495 C79.4257426,32.3712871 78.5346535,32.0643564 77.5,32.0643564 Z M18.2326733,13.2376238 C18.9009901,13.2376238 19.5247525,13.3415842 20.1039604,13.5445545 C20.6831683,13.7524752 21.1930693,14.0148515 21.6336634,14.3366337 C22.0742574,14.6584158 22.4158416,15 22.6633663,15.3663366 L21.3960396,16.6831683 C20.960396,16.2376238 20.480198,15.8663366 19.9554455,15.5742574 C19.4257426,15.2821782 18.8514851,15.1336634 18.2326733,15.1336634 C17.529703,15.1336634 16.8613861,15.3069307 16.2376238,15.6633663 C15.6089109,16.0148515 15.1039604,16.5148515 14.7178218,17.1683168 C14.3316832,17.8217822 14.1386139,18.5940594 14.1386139,19.5 C14.1386139,20.4851485 14.3366337,21.3069307 14.7277228,21.960396 C15.1188119,22.6188119 15.6435644,23.1089109 16.2920792,23.4306931 C16.9405941,23.7524752 17.6435644,23.9158416 18.3960396,23.9158416 C19.0891089,23.9158416 19.6980198,23.7772277 20.2227723,23.5049505 C20.7524752,23.2277228 21.1732673,22.9257426 21.490099,22.5990099 L22.4405941,24.1386139 C22.1930693,24.4207921 21.8514851,24.6881188 21.4108911,24.9455446 C20.970297,25.2029703 20.4653465,25.4158416 19.8960396,25.5792079 C19.3267327,25.7425743 18.7227723,25.8267327 18.0742574,25.8267327 C16.970297,25.8267327 15.980198,25.5643564 15.0940594,25.0445545 C14.2079208,24.5247525 13.5049505,23.7871287 12.9851485,22.8366337 C12.4653465,21.8861386 12.2029703,20.7722772 12.2029703,19.4950495 C12.2029703,18.5940594 12.3613861,17.7623762 12.6782178,17 C12.9950495,16.2376238 13.4356436,15.5742574 13.9950495,15.0148515 C14.5594059,14.450495 15.2029703,14.0148515 15.9306931,13.7029703 C16.6584158,13.3910891 17.4257426,13.2376238 18.2326733,13.2376238 Z M29.470297,13.2376238 C30.1386139,13.2376238 30.7623762,13.3415842 31.3415842,13.5445545 C31.9207921,13.7524752 32.4306931,14.0148515 32.8712871,14.3366337 C33.3118812,14.6584158 33.6534653,15 33.9009901,15.3663366 L32.6336634,16.6831683 C32.1980198,16.2376238 31.7178218,15.8663366 31.1930693,15.5742574 C30.6633663,15.2821782 30.0891089,15.1336634 29.470297,15.1336634 C28.7673267,15.1336634 28.0990099,15.3069307 27.4752475,15.6633663 C26.8465347,16.0148515 26.3415842,16.5148515 25.9554455,17.1683168 C25.5693069,17.8217822 25.3762376,18.5940594 25.3762376,19.5 C25.3762376,20.4851485 25.5742574,21.3069307 25.9653465,21.960396 C26.3564356,22.6188119 26.8811881,23.1089109 27.529703,23.4306931 C28.1782178,23.7524752 28.8811881,23.9158416 29.6336634,23.9158416 C30.3267327,23.9158416 30.9356436,23.7772277 31.460396,23.5049505 C31.990099,23.2277228 32.4108911,22.9257426 32.7277228,22.5990099 L33.6782178,24.1386139 C33.4306931,24.4207921 33.0891089,24.6881188 32.6485149,24.9455446 C32.2079208,25.2029703 31.7029703,25.4158416 31.1336634,25.5792079 C30.5643564,25.7425743 29.960396,25.8267327 29.3118812,25.8267327 C28.2079208,25.8267327 27.2178218,25.5643564 26.3316832,25.0445545 C25.4455446,24.5247525 24.7425743,23.7871287 24.2227723,22.8366337 C23.7029703,21.8861386 23.4405941,20.7722772 23.4405941,19.4950495 C23.4405941,18.5940594 23.5990099,17.7623762 23.9158416,17 C24.2326733,16.2376238 24.6732673,15.5742574 25.2326733,15.0148515 C25.7970297,14.450495 26.4405941,14.0148515 27.1683168,13.7029703 C27.8960396,13.3910891 28.6633663,13.2376238 29.470297,13.2376238 Z M40.0990099,13.3366337 C40.7425743,13.3366337 41.3613861,13.4950495 41.9554455,13.8118812 C42.549505,14.1287129 43.0346535,14.5792079 43.4158416,15.1683168 C43.7920792,15.7524752 43.9851485,16.450495 43.9851485,17.2623762 C43.9851485,18 43.7673267,18.6881188 43.3267327,19.3217822 C42.8861386,19.9554455 42.3168317,20.4257426 41.6138614,20.7277228 L44.480198,25.6683168 L42.1782178,25.6485149 L39.5742574,21.0247525 L36.7623762,21.0247525 L36.7623762,25.6485149 L34.8613861,25.6485149 L34.8613861,13.3366337 L40.0990099,13.3366337 Z M10.6930693,13.3366337 L10.6930693,25.6485149 L8.95049505,25.6485149 L1.79207921,16.2574257 C1.86138614,16.9752475 1.93069307,17.6831683 1.9950495,18.3960396 C2.05940594,19.1039604 2.09405941,19.8168317 2.09405941,20.5346535 L2.09405941,25.6534653 L0.193069307,25.6534653 L0.193069307,13.3415842 L1.9009901,13.3415842 L9.05940594,22.9257426 C8.95544554,22.0693069 8.88118812,21.1485149 8.84653465,20.1534653 C8.81188119,19.1633663 8.79207921,18.2376238 8.79207921,17.3811881 L8.79207921,13.3366337 L10.6930693,13.3366337 Z M39.7821782,15.1683168 L36.7574257,15.1683168 L36.7574257,19.1980198 L40.2772277,19.1980198 C40.8415842,19.1980198 41.2772277,19 41.5891089,18.5990099 C41.9009901,18.2029703 42.0544554,17.7475248 42.0544554,17.2425743 C42.0544554,16.5990099 41.8316832,16.0891089 41.3861386,15.7227723 C40.9405941,15.3564356 40.4009901,15.1683168 39.7821782,15.1683168 Z" fill="#2D456C" fill-rule="nonzero"></path><path d="M101.920792,0.391089109 C101.757426,0.361386139 101.59901,0.351485149 101.440594,0.356435644 C101.440594,0.351485149 101.440594,0.351485149 101.440594,0.346534653 C92.8118812,-0.0198019802 87.470297,2.02970297 84.509901,3.06435644 C84.509901,3.05940594 84.509901,3.05940594 84.5049505,3.05445545 C73.0643564,7.27722772 63.049505,18.1089109 61.1930693,30.470297 L61.1980198,30.470297 C61.1980198,30.4752475 61.1930693,30.4851485 61.1930693,30.490099 C61.0742574,31.2871287 61.6237624,32.029703 62.4207921,32.1534653 C63.2178218,32.2722772 63.960396,31.7227723 64.0841584,30.9257426 C64.0841584,30.9207921 64.0841584,30.9108911 64.0841584,30.9059406 L64.0841584,30.9059406 C66.9009901,19.3118812 82.1386139,8.23762376 99.6683168,12.1336634 C100.821782,12.3564356 101.940594,11.6039604 102.168317,10.4455446 L103.59901,2.89108911 C103.831683,1.73267327 103.074257,0.613861386 101.920792,0.391089109 Z" fill="#2D456C" fill-rule="nonzero"></path><path d="M111.737624,1.93069307 C110.648515,1.43564356 109.366337,1.92079208 108.871287,3.00990099 L105.014851,11.5891089 C104.519802,12.6782178 105.00495,13.960396 106.094059,14.4554455 L106.094059,14.4554455 C107.183168,14.950495 108.465347,14.4653465 108.960396,13.3762376 L112.816832,4.7970297 C113.311881,3.70792079 112.826733,2.42574257 111.737624,1.93069307 Z" fill="#2C5F8A" fill-rule="nonzero"></path><path d="M119.356436,6.97029703 C120.183168,6.16336634 121.50495,6.18316832 122.306931,7.0049505 C123.068812,7.79034653 123.093502,9.01805693 122.389491,9.83070668 L122.272277,9.95544554 L119.529703,12.6831683 C118.998867,13.2012893 118.263934,13.3785668 117.593553,13.2215532 C117.74852,13.8577092 117.596405,14.5524418 117.144083,15.0758268 L117.024752,15.2029703 L114.282178,17.9306931 C113.496782,18.6972772 112.264604,18.7177351 111.455752,18.013289 L111.331683,17.8960396 L111.216841,17.7684437 C110.566966,16.9845402 110.58162,15.8429662 111.242926,15.0767193 L111.366337,14.9455446 L114.108911,12.2178218 C114.639705,11.6997414 115.374565,11.5224511 116.044903,11.6793999 C115.890082,11.0412336 116.042208,10.3454404 116.494531,9.82448237 L116.613861,9.6980198 L119.356436,6.97029703 Z" fill="#217BAA" fill-rule="nonzero"></path><path d="M119.990099,18.3415842 C120.905941,17.6980198 122.173267,17.9257426 122.811881,18.8415842 C123.450495,19.7623762 123.227723,21.0247525 122.311881,21.6633663 L122.311881,21.6633663 L119.252475,23.8465347 C118.336634,24.490099 117.069307,24.2623762 116.430693,23.3465347 L116.430693,23.3465347 L116.34067,23.2066448 C115.811621,22.3055322 116.060644,21.1314356 116.930693,20.5247525 L116.930693,20.5247525 Z M127.346535,13.0742574 C128.262376,12.4306931 129.529703,12.6584158 130.168317,13.5742574 C130.806931,14.490099 130.584158,15.7524752 129.668317,16.3960396 L129.668317,16.3960396 L126.608911,18.5792079 C125.693069,19.2227723 124.425743,18.9950495 123.787129,18.0792079 L123.787129,18.0792079 L123.697106,17.9393181 C123.168057,17.0382054 123.417079,15.8641089 124.287129,15.2574257 L124.287129,15.2574257 Z" fill="#0098CB" fill-rule="nonzero"></path><path d="M127.415842,27.0792079 C127.029703,26.0544554 125.881188,25.539604 124.856436,25.9257426 L121.430693,27.2623762 C120.405941,27.6485149 119.891089,28.7970297 120.277228,29.8217822 L120.277228,29.8217822 C120.663366,30.8465347 121.811881,31.3613861 122.836634,30.9752475 L126.262376,29.6386139 C127.287129,29.2524752 127.80198,28.1039604 127.415842,27.0792079 Z" fill="#00B6ED" fill-rule="nonzero"></path><path d="M132.554455,22.9009901 L132.168317,27.3019802 C131.153465,27.6584158 130.039604,27.1485149 129.658416,26.1386139 L129.658416,26.1386139 L129.60934,25.9914744 C129.322467,25.0062078 129.835926,23.946959 130.811881,23.5792079 L130.811881,23.5792079 L132.554455,22.9009901 Z M134.272277,22.2376238 C135.287129,21.8712871 136.410891,22.3811881 136.79703,23.3960396 C137.183168,24.4207921 136.668317,25.5643564 135.643564,25.9554455 L135.643564,25.9554455 L133.886139,26.6386139 Z" fill="#A1DAF8" fill-rule="nonzero"></path></g></svg>
