<?xml version="1.0" encoding="UTF-8" standalone="no"?>
<svg
   xmlns:dc="http://purl.org/dc/elements/1.1/"
   xmlns:cc="http://creativecommons.org/ns#"
   xmlns:rdf="http://www.w3.org/1999/02/22-rdf-syntax-ns#"
   xmlns:svg="http://www.w3.org/2000/svg"
   xmlns="http://www.w3.org/2000/svg"
   xmlns:sodipodi="http://sodipodi.sourceforge.net/DTD/sodipodi-0.dtd"
   xmlns:inkscape="http://www.inkscape.org/namespaces/inkscape"
   inkscape:version="1.0 (4035a4f, 2020-05-01)"
   sodipodi:docname="bacteria.svg"
   id="svg835"
   version="1.1"
   viewBox="0 0 24 24">
  <metadata
     id="metadata841">
    <rdf:RDF>
      <cc:Work
         rdf:about="">
        <dc:format>image/svg+xml</dc:format>
        <dc:type
           rdf:resource="http://purl.org/dc/dcmitype/StillImage" />
      </cc:Work>
    </rdf:RDF>
  </metadata>
  <defs
     id="defs839" />
  <sodipodi:namedview
     inkscape:current-layer="svg835"
     inkscape:window-maximized="0"
     inkscape:window-y="25"
     inkscape:window-x="0"
     inkscape:cy="12"
     inkscape:cx="12"
     inkscape:zoom="30.416667"
     showgrid="false"
     id="namedview837"
     inkscape:window-height="881"
     inkscape:window-width="1623"
     inkscape:pageshadow="2"
     inkscape:pageopacity="0"
     guidetolerance="10"
     gridtolerance="10"
     objecttolerance="10"
     borderopacity="1"
     bordercolor="#666666"
     pagecolor="#ffffff" />
  <path
     style="fill:#800000"
     id="path833"
     d="M21 16c0-.5-.05-.92-.12-1.32l1.57-.78-.9-1.8-1.37.69c-.55-.83-1.27-1.29-1.89-1.51l.66-1.96-1.9-.64-.76 2.28c-1.33-.13-2.12-.64-2.59-1.19l1.75-.87-.9-1.8-1.55.79a4.39 4.39 0 0 0-.72-2.02l1.55-2.32-1.66-1.11-1.41 2.12c-.48-.23-1.06-.41-1.76-.5V2H7v2.1c-.71.15-1.27.44-1.68.81L2.7 2.29 1.29 3.71l2.95 2.94C4 7.39 4 8 4 8H2v2h2.04c.06.63.17 1.36.36 2.15l-2.72.9.63 1.9 2.69-.9c.24.51.5 1.03.82 1.53l-2.38 1.59 1.11 1.66 2.52-1.68c.56.56 1.22 1.06 1.99 1.49l-.96 1.91 1.79.9 1-2-.16-.09c.95.32 2.03.54 3.27.61V22h2v-2.07c.76-.09 1.81-.29 2.77-.74l1.52 1.52 1.41-1.42-1.33-1.34c.38-.51.63-1.15.63-1.95M8.5 11A1.5 1.5 0 0 1 7 9.5 1.5 1.5 0 0 1 8.5 8 1.5 1.5 0 0 1 10 9.5 1.5 1.5 0 0 1 8.5 11m2.5 3a1 1 0 0 1-1-1 1 1 0 0 1 1-1 1 1 0 0 1 1 1 1 1 0 0 1-1 1m4.5 3a1.5 1.5 0 0 1-1.5-1.5 1.5 1.5 0 0 1 1.5-1.5 1.5 1.5 0 0 1 1.5 1.5 1.5 1.5 0 0 1-1.5 1.5z" />
</svg>
